<svg width="226" height="35" viewBox="0 0 226 35" fill="none" xmlns="http://www.w3.org/2000/svg">
<path d="M16.816 34.768C11.664 34.768 7.648 33.376 4.768 30.592C1.888 27.808 0.448 23.904 0.448 18.88V0.399998H11.776V18.544C11.776 21.008 12.208 22.8 13.072 23.92C13.968 25.04 15.248 25.6 16.912 25.6C18.576 25.6 19.84 25.04 20.704 23.92C21.6 22.8 22.048 21.008 22.048 18.544V0.399998H33.184V18.88C33.184 23.904 31.744 27.808 28.864 30.592C25.984 33.376 21.968 34.768 16.816 34.768ZM71.4966 0.399998V34H62.1846L49.4166 18.736V34H38.3766V0.399998H47.6886L60.4566 15.664V0.399998H71.4966ZM131.627 0.399998L120.875 34H108.731L103.307 16.048L97.5948 34H85.4508L74.6988 0.399998H86.3628L92.2188 19.504L98.4108 0.399998H108.827L114.683 19.744L120.875 0.399998H131.627ZM134.142 0.399998H145.47V34H134.142V0.399998ZM184.044 0.399998V34H174.732L161.964 18.736V34H150.924V0.399998H160.236L173.004 15.664V0.399998H184.044ZM189.502 0.399998H206.062C209.806 0.399998 213.102 1.088 215.95 2.464C218.83 3.808 221.054 5.744 222.622 8.272C224.222 10.8 225.022 13.776 225.022 17.2C225.022 20.624 224.222 23.6 222.622 26.128C221.054 28.656 218.83 30.608 215.95 31.984C213.102 33.328 209.806 34 206.062 34H189.502V0.399998ZM205.582 25.168C208.014 25.168 209.95 24.48 211.39 23.104C212.862 21.696 213.598 19.728 213.598 17.2C213.598 14.672 212.862 12.72 211.39 11.344C209.95 9.936 208.014 9.232 205.582 9.232H200.83V25.168H205.582Z" fill="black"/>
</svg>
